<svg xmlns="http://www.w3.org/2000/svg" viewBox="0 0 1024 1024" role="img" aria-label="Bütçem uygulama ikonu">
  <defs>
    <linearGradient id="bg" x1="0" y1="0" x2="1" y2="1">
      <stop offset="0%" stop-color="#2b3142"/>
      <stop offset="100%" stop-color="#111724"/>
    </linearGradient>
    <radialGradient id="glow" cx="50%" cy="36%" r="70%">
      <stop offset="0%" stop-color="#3f4659" stop-opacity="0.38"/>
      <stop offset="100%" stop-color="#0f1522" stop-opacity="0"/>
    </radialGradient>
    <linearGradient id="goldFill" x1="0" y1="0" x2="1" y2="1">
      <stop offset="0%" stop-color="#fbf5df"/>
      <stop offset="30%" stop-color="#f1ddb1"/>
      <stop offset="58%" stop-color="#d6b67a"/>
      <stop offset="100%" stop-color="#a78651"/>
    </linearGradient>
    <linearGradient id="goldEdge" x1="0" y1="0" x2="0" y2="1">
      <stop offset="0%" stop-color="#fff6dc"/>
      <stop offset="100%" stop-color="#8d6b3b"/>
    </linearGradient>
    <filter id="shadow" x="-20%" y="-20%" width="140%" height="140%">
      <feDropShadow dx="0" dy="14" stdDeviation="18" flood-color="#05070b" flood-opacity="0.34"/>
    </filter>
    <filter id="innerGlow" x="-20%" y="-20%" width="140%" height="140%">
      <feDropShadow dx="0" dy="0" stdDeviation="6" flood-color="#fff2ce" flood-opacity="0.38"/>
    </filter>
    <style>
      .gold {
        fill: url(#goldFill);
        stroke: url(#goldEdge);
        stroke-width: 10;
        stroke-linejoin: round;
        stroke-linecap: round;
      }
      .goldLine {
        fill: none;
        stroke: url(#goldFill);
        stroke-width: 54;
        stroke-linecap: square;
        stroke-linejoin: miter;
      }
      .goldOutline {
        fill: none;
        stroke: url(#goldEdge);
        stroke-width: 12;
        stroke-linecap: square;
        stroke-linejoin: miter;
      }
    </style>
  </defs>

  <rect x="0" y="0" width="1024" height="1024" rx="212" fill="url(#bg)"/>
  <rect x="24" y="24" width="976" height="976" rx="188" fill="url(#glow)"/>

  <g filter="url(#shadow)">
    <path class="goldLine" d="M184 732H840"/>
    <path class="goldOutline" d="M184 732H840"/>

    <rect class="gold" x="214" y="610" width="74" height="122" rx="6"/>
    <rect class="gold" x="342" y="490" width="78" height="242" rx="6"/>
    <rect class="gold" x="636" y="468" width="78" height="264" rx="6"/>
    <rect class="gold" x="766" y="366" width="78" height="366" rx="6"/>

    <path class="gold"
      d="M506 732
         C506 678 530 644 566 644
         C602 644 626 678 626 732
         Z"/>
    <path class="gold"
      d="M585 592
         C618 564 647 564 667 586
         C646 620 613 624 585 592 Z"/>
    <path class="gold"
      d="M545 592
         C512 564 483 564 463 586
         C484 620 517 624 545 592 Z"/>
    <path d="M548 675c8-10 20-16 33-16 19 0 35 11 42 28M553 657c-2 14 0 31 8 49"
      fill="none" stroke="#8d6b3b" stroke-width="8" stroke-linecap="round"/>
    <path d="M542 689c11-7 26-12 43-12" fill="none" stroke="#fff1c5" stroke-width="4" stroke-linecap="round" opacity=".9"/>

    <path class="goldLine" d="M244 658L430 470L565 603L826 344"/>
    <path class="goldOutline" d="M244 658L430 470L565 603L826 344"/>
    <path class="gold" d="M748 254L862 278L838 392L790 344L726 409L693 376L757 311Z"/>
  </g>

  <g filter="url(#innerGlow)" opacity=".45">
    <path d="M205 732H819" fill="none" stroke="#fff6dd" stroke-width="5" stroke-linecap="round"/>
    <path d="M264 654L430 488L565 621L810 376" fill="none" stroke="#fff6dd" stroke-width="8" stroke-linecap="round" opacity=".7"/>
  </g>
</svg>
